{"title":"The White Massai[Die weisse Massai]2005[DVDRip]-[Eng-subbed]-Ext","uid":6268122,"size":1550463499,"categoryP":"video","categoryS":"movies","magnet":"?xt=urn:btih:af1a6f0faaf0ffd0a9f88e7cd2404c8aff574e04&amp;dn=The+White+Massai%5BDie+weisse+Massai%5D2005%5BDVDRip%5D-%5BEng-subbed%5D-Ext&amp;tr=udp%3A%2F%2Ftracker.openbittorrent.com%3A80&amp;tr=udp%3A%2F%2Fopen.demonii.com%3A1337&amp;tr=udp%3A%2F%2Ftracker.coppersurfer.tk%3A6969&amp;tr=udp%3A%2F%2Fexodus.desync.com%3A6969","seeders":8,"leechers":1,"uploader":"LegendET","files":2,"time":1300972543,"description":"\nPlot:-\n\nThe Swiss Carola Lehmann develops a crush on the Samburu warrior Lemalian Mamutelil during a ferry trip on the last day of her two week vacation in Kenya, although traveling with her boyfriend, Stefan. She strikes up a conversation with Lemalian and, the next morning, instead of returning to Biel (Switzerland), Carola decides to leave Stefan and seek out Lemalian. She travels to Nairobi by bus. From there to Maralal, where she befriends Elizabeth Muzungu, a Caucasian married to a Kikuyu. She explains some important details of the Samburu culture to Carola. Wwhen Lemalian meets with her, they walk together to his isolated tribe in Barsaloi. Carola is welcomed by his people, she sells her shop in Switzerland and marries Lemalian, having a daughter with him. She also opens up a store.There, she has to adapt to the Masai's way of life and get used to their food which includes milk mixed with blood. She also has to face her husband's attitude towards women and what he expects from a wife. However, their differences of cultures force Carola to make an ultimate decision.\n\nGeneral\n\nFormat : AVI\nFormat/Info : Audio Video Interleave\nFormat profile : OpenDML\nFile size : 1.44 GiB\nDuration : 2h 5mn\nOverall bit rate : 1 644 Kbps\n\nVideo\nID : 0\nFormat : mp43\nCodec ID : mp43\nDuration : 2h 5mn\nBit rate : 507 Kbps\nWidth : 640 pixels\nHeight : 272 pixels\nDisplay aspect ratio : 2.35:1\nFrame rate : 29.970 fps\nBits/(Pixel*Frame) : 0.097\nStream size : 456 MiB (31%)\n\nAudio\nID : 1\nFormat : MPEG Audio\nFormat version : Version 1\nFormat profile : Layer 3\nMode : Joint stereo\nMode extension : MS Stereo\nCodec ID : 55\nCodec ID/Hint : MP3\nDuration : 37mn 48s\nBit rate mode : Constant\nBit rate : 128 Kbps\nChannel(s) : 2 channels\nSampling rate : 44.1 KHz\nCompression mode : Lossy\nStream size : 34.6 MiB (2%)\nAlignment : Aligned on interleaves\nInterleave, duration : 29 ms (0.88 video frame)\nWriting library : LAME3.98","torrent":{"xt":"urn:btih:af1a6f0faaf0ffd0a9f88e7cd2404c8aff574e04","amp;dn":"The+White+Massai%5BDie+weisse+Massai%5D2005%5BDVDRip%5D-%5BEng-subbed%5D-Ext","amp;tr":["udp%3A%2F%2Ftracker.openbittorrent.com%3A80","udp%3A%2F%2Fopen.demonii.com%3A1337","udp%3A%2F%2Ftracker.coppersurfer.tk%3A6969","udp%3A%2F%2Fexodus.desync.com%3A6969"],"infoHash":"af1a6f0faaf0ffd0a9f88e7cd2404c8aff574e04","infoHashBuffer":{"type":"Buffer","data":[175,26,111,15,170,240,255,208,169,248,142,124,210,64,76,138,255,87,78,4]},"announce":[],"urlList":[]}}